<svg xmlns:rdf="http://www.w3.org/1999/02/22-rdf-syntax-ns#" xmlns="http://www.w3.org/2000/svg" height="92.368mm" width="350.48mm" version="1.1" xmlns:cc="http://creativecommons.org/ns#" xmlns:dc="http://purl.org/dc/elements/1.1/" viewBox="0 0 1241.8498 327.28942">
<metadata>
<rdf:RDF>
<cc:Work rdf:about="">
<dc:format>image/svg+xml</dc:format>
<dc:type rdf:resource="http://purl.org/dc/dcmitype/StillImage"/>
<dc:title/>
</cc:Work>
</rdf:RDF>
</metadata>
<g transform="translate(618.07 -408.72)">
<g transform="translate(711.43 788.71)">
<rect height="327.29" width="1241.8" y="-379.99" x="-1329.5" fill="#e1004c"/>
<g fill="#fff" transform="translate(.0000037955 3.728e-7)">
<circle cy="-281.47" cx="-1074.9" r="19.611"/>
<path d="m-709.37-294.49v162.86h110.49v-24.494h-80.81v-49.465h75.923v-24.278c-25.308 0-50.615 0.00001-75.923 0v-42.285h80.81v-24.386h-110.49v1.0252 1.0252z"/>
<path d="m-569.15-294.49v162.86h30.931v-164.91h-30.931v1.0252 1.0252z"/>
<path d="m-510.74-294.49v162.86h103.01v-24.709h-74.887c0-46.734 0.00001-93.467 0-140.2h-28.119v1.0252 1.0252z"/>
<path d="m-305.42-293.48c19.252 32.971 38.506 65.942 57.759 98.913v62.929h28.344v-63.774c19.902-33.712 39.805-67.423 59.707-101.14h-31.064c-14.263 24.7-28.532 49.397-42.798 74.096-14.159-24.699-28.319-49.397-42.476-74.096h-31.263c0.59694 1.0225 1.1939 2.045 1.7908 3.0676z"/>
<path d="m-389.29-294.49v162.86h103.01v-24.709h-74.885v-140.2h-28.121v1.0252 1.0252z"/>
<path d="m-1177-296.55c-42.274-0.11889-80.232 37.802-80.48 79.931-1.8792 40.745 30.931 79.8 71.635 84.26 38.906 5.5143 79.781-20.534 90.033-58.723 11.141-37.264-7.722-81.377-43.602-97.349-11.672-5.5745-24.653-8.3821-37.586-8.1189zm3.6231 26.263c31.85-0.12984 59.419 32.149 54.046 63.803-3.6675 29.051-32.677 52.127-61.749 48.243-28.751-2.8954-52.846-30.524-50.088-59.645 1.627-27.45 26.248-52.573 54.504-52.35 1.0957-0.0192 2.1914-0.0387 3.2872-0.0508z"/>
<path d="m-784.5-296.56c-18.314 0.28216-64.076-0.0709-82.391 0.0371v164.91h25.717v-71.077h44.149l32.655 71.077h32.028l-33.77-72.886c19.307-6.1746 30.384-22.012 31.326-42.546 2.9077-38.132-29.591-49.604-49.713-49.511zm5.6089 26.4c11.493 2.9029 17.514 8.2193 17.365 21.156-0.14901 12.937-8.3646 18.623-17.829 20.626l-61.819-0.41719v-41.365z"/>
<path d="m-960.16-296.56c-0.8083-0.007-1.6175-0.003-2.4258 0.0137-42.274-0.11889-80.232 37.803-80.48 79.932-1.8793 40.745 30.931 79.799 71.635 84.26 36.375 5.1556 74.465-17.281 87.646-51.432h-29.725c-11.454 17.233-32.288 28.338-53.156 25.55-28.751-2.8954-52.846-30.524-50.088-59.645 1.627-27.45 26.248-52.573 54.504-52.35 1.0957-0.0192 2.1913-0.0387 3.2871-0.0508 18.41-0.0751 35.374 10.687 45.389 25.888h29.4c-7.5092-19.121-21.766-35.547-40.826-44.032-10.942-5.2261-23.035-8.0206-35.16-8.1326z"/>
</g>
</g>
</g>
</svg>
