<svg xmlns:rdf="http://www.w3.org/1999/02/22-rdf-syntax-ns#" xmlns="http://www.w3.org/2000/svg" height="49.671mm" width="286.26mm" version="1.1" xmlns:cc="http://creativecommons.org/ns#" xmlns:dc="http://purl.org/dc/elements/1.1/" viewBox="0 0 1014.2933 176">
<metadata>
<rdf:RDF>
<cc:Work rdf:about="">
<dc:format>image/svg+xml</dc:format>
<dc:type rdf:resource="http://purl.org/dc/dcmitype/StillImage"/>
<dc:title/>
</cc:Work>
</rdf:RDF>
</metadata>
<g transform="translate(1302.7 -375.05)">
<g>
<rect height="171" width="325.27" stroke="#312951" stroke-linecap="round" y="377.55" x="-616.21" stroke-width="5" fill="#fff"/>
<g transform="translate(-1267.5 639.82)">
<rect height="168.23" width="511.64" y="-260.89" x="-32.117" fill="#fff"/>
<path style="color-rendering:auto;text-decoration-color:#000000;color:#000000;isolation:auto;mix-blend-mode:normal;shape-rendering:auto;solid-color:#000000;block-progression:tb;text-decoration-line:none;text-decoration-style:solid;image-rendering:auto;white-space:normal;text-indent:0;text-transform:none" d="m-35.208-264.78v2.5209 173.48h176.52 170.72 168.59 2.5215 171.65v-176h-171.65-2.5215-168.59-170.72-176.52zm5.0568 5.0418h166.4v165.92h-166.4v-165.92zm171.86 0h165.3v165.92h-165.3v-165.92zm171.11 0h165.3v165.92h-165.3v-165.92z" fill="#312951"/>
<g fill="#312951" transform="matrix(1.0024 0 0 1.0084 -301.23 130.17)">
<path d="m327.96-329.26h3.676q3.1792-3.974 3.9243-3.974 0.69545 0 4.4707 3.3282 1.5399 1.2915 1.5399 2.285 0 0.89415-1.2916 0.89415h-12.319v19.125q5.812-2.4341 12.468-6.0603 0.0994-0.0497 0.1987-0.0497 0.74513 0 0.74513 0.84448 0 0.1987-0.0994 0.34772-6.0107 4.7688-13.313 9.0905l0.3974 36.213q0 4.272-3.3779 6.3087-1.987 1.3412-4.5701 1.3412-1.1922 0-1.3909-1.4406-0.29805-2.0367-2.2354-3.1295-2.0864-1.2419-7.4512-2.4341-0.3974-0.0994-0.3974-0.69545 0-0.74513 0.49675-0.64578 8.1467 0.7948 10.68 0.7948 1.7386 0 1.7386-1.838v-31.146q-3.5269 1.8876-8.8421 4.3714-0.3974 3.6759-1.6393 3.6759-0.74513 0-1.5399-1.5896-0.69544-1.4902-2.9308-7.0538 3.1792-0.54643 6.6068-1.6393 3.3282-0.9935 8.3454-2.8315v-21.559h-7.7493q-1.987 0-5.7623 0.5961l-1.0432-3.7753q3.3282 0.64577 6.8055 0.64577h7.7493q0-17.635-0.49675-22.205 6.5571 0.74512 8.3951 1.3412 1.5896 0.49675 1.5896 1.4406 0 1.3412-3.3779 2.7321v16.691zm33.779 19.025v-18.628h-12.816q-3.3282 0-6.6068 0.5961l-1.0432-3.825q3.5766 0.69545 7.5506 0.69545h12.915v-6.2094q0-8.6931-0.49675-13.512 6.6068 0.69545 8.5938 1.2916 1.3909 0.49675 1.3909 1.3412 0 1.2419-3.3779 2.7321v14.356h17.585q4.2224-4.9675 5.1165-4.9675 0.69545 0 5.4642 3.974 2.0367 1.6393 2.0367 2.5334 0 0.9935-1.3909 0.9935h-28.811v18.628h12.22q3.0302-3.4772 3.7753-3.4772 0.74512 0 4.5701 3.3779 1.838 1.6889 1.838 2.5334 0 1.0928-3.6759 2.2354-6.4081 14.207-16.79 24.39l0.69545 0.64578q11.127 9.3886 29.06 12.617 0.34772 0.0497 0.34772 0.3974 0 0.49675-0.54642 0.69545-1.838 0.3974-2.7321 1.4406-0.7948 0.94383-1.689 3.1792-0.34772 1.0928-1.2916 1.0928-0.59609 0-3.4772-0.9935-14.058-5.1662-24.341-15.598-13.76 11.823-34.325 17.237-0.0497 0-0.0994 0-0.5961 0-0.5961-0.9935 0-0.44707 0.29805-0.54642 18.727-7.5506 31.246-19.473-8.3454-10.233-13.71-26.228-2.8811 0-6.2094 0.5961l-1.0432-3.825q4.4211 0.69545 8.5441 0.69545h11.823zm-10.481 2.5334q5.3649 13.462 14.555 22.801 9.5376-10.134 14.555-22.801h-29.11z"/>
<path d="m496.65-354.34a0.032321 0.032321 0 0 0 -0.002 0.002 0.032321 0.032321 0 0 0 -0.01 0.002 0.032321 0.032321 0 0 0 -0.006 0.002 0.032321 0.032321 0 0 0 -0.002 0.002 0.032321 0.032321 0 0 0 -0.006 0.004 0.032321 0.032321 0 0 0 -0.004 0.006 0.032321 0.032321 0 0 0 0 0.004c-0.63733 1.6408-1.9571 3.9079-3.957 6.7988-5.5327 7.9548-11.424 14.168-17.672 18.641a0.032321 0.032321 0 0 0 -0.002 0.002 0.032321 0.032321 0 0 0 -0.002 0.002 0.032321 0.032321 0 0 0 -0.002 0.002c-0.078 0.0959-0.1224 0.19792-0.13477 0.30468-0.0354 0.305 0.00082 0.5472 0.11524 0.72266 0.11441 0.17546 0.3057 0.27891 0.56445 0.3125 0.0721 0.009 0.1461-0.0201 0.21875-0.0781l0.008-0.004c8.3571-3.8639 16.462-10.382 24.312-19.557 1.4429 0.18619 2.5406 0.20739 3.2969 0.0586 0.37995-0.0747 0.67469-0.19284 0.88281-0.35547 0.20812-0.16262 0.32843-0.371 0.35742-0.62109 0.0326-0.28134-0.11434-0.61814-0.43164-1.0137-0.31729-0.39554-0.80713-0.85056-1.4688-1.3691-1.3232-1.0372-3.3362-2.3236-6.041-3.8613a0.032321 0.032321 0 0 0 -0.002 -0.002 0.032321 0.032321 0 0 0 -0.006 -0.002 0.032321 0.032321 0 0 0 -0.008 -0.002zm21.803 1.4356a0.032321 0.032321 0 0 0 -0.006 0.002 0.032321 0.032321 0 0 0 -0.006 0.002 0.032321 0.032321 0 0 0 -0.006 0.002 0.032321 0.032321 0 0 0 -0.006 0.004 0.032321 0.032321 0 0 0 -0.004 0.006 0.032321 0.032321 0 0 0 -0.002 0.006 0.032321 0.032321 0 0 0 -0.002 0.006 0.032321 0.032321 0 0 0 0 0.01 0.032321 0.032321 0 0 0 0 0.002c0.23077 1.3792 0.40366 4.9136 0.51953 9.5938 0.11565 4.6714 0.17361 10.487 0.17382 16.451h-7.9141c-2.117 0-4.4497-0.23969-6.998-0.72266a0.032321 0.032321 0 0 0 -0.006 -0.002 0.032321 0.032321 0 0 0 -0.006 0.002 0.032321 0.032321 0 0 0 -0.01 0.004 0.032321 0.032321 0 0 0 -0.006 0.002 0.032321 0.032321 0 0 0 -0.004 0.006 0.032321 0.032321 0 0 0 -0.002 0.002 0.032321 0.032321 0 0 0 -0.002 0.006 0.032321 0.032321 0 0 0 -0.002 0.006 0.032321 0.032321 0 0 0 0 0.01 0.032321 0.032321 0 0 0 0 0.004l0.89257 3.6738a0.032321 0.032321 0 0 0 0 0.002 0.032321 0.032321 0 0 0 0.004 0.006 0.032321 0.032321 0 0 0 0.004 0.006 0.032321 0.032321 0 0 0 0.002 0.002 0.032321 0.032321 0 0 0 0.002 0.002 0.032321 0.032321 0 0 0 0.006 0.004 0.032321 0.032321 0 0 0 0.006 0.002 0.032321 0.032321 0 0 0 0.006 0.002 0.032321 0.032321 0 0 0 0.006 -0.002c2.2175-0.322 4.2881-0.48242 6.207-0.48242h7.8144v16.303l-0.49609 45.814c0 0.82754 0.23193 1.455 0.69531 1.873 0.46339 0.41799 1.1548 0.625 2.0703 0.625 1.3287 0 2.3297-0.24636 3-0.74415 0.67027-0.49778 1.0058-1.2484 1.0058-2.2383l-0.39648-50.598v-11.035h24.658c0.43453 0 0.76487-0.0812 0.98828-0.24805 0.22342-0.16685 0.33594-0.42062 0.33594-0.75 0-0.25529-0.1586-0.58072-0.46679-0.98632-0.3082-0.40561-0.76931-0.89048-1.3828-1.4551a0.032321 0.032321 0 0 0 -0.002 -0.002c-1.3085-1.0474-2.3512-1.8331-3.1309-2.3574-0.38984-0.26213-0.71408-0.45806-0.97266-0.58984-0.25857-0.13178-0.4504-0.20117-0.58593-0.20117-0.13885 0-0.32053 0.0891-0.5586 0.25976-0.23806 0.17063-0.53059 0.42678-0.8789 0.76563-0.69451 0.67563-1.6119 1.6858-2.75 3.0332h-15.254v-21.102c1.117-0.48044 1.9568-0.92562 2.5195-1.3359 0.56616-0.41282 0.85742-0.79223 0.85742-1.1484 0-0.29824-0.11708-0.55859-0.3457-0.77343-0.22862-0.21485-0.56739-0.38586-1.0176-0.51563-1.1667-0.35673-4.0133-0.75591-8.5508-1.207a0.032321 0.032321 0 0 0 -0.004 -0.002zm44.854 4.9512c-0.16249 0-0.36792 0.0991-0.62695 0.28711-0.25903 0.18802-0.57053 0.46845-0.93555 0.8418-0.72757 0.74418-1.6681 1.8585-2.8223 3.3418h-9.9414c-2.117 0-4.4654-0.24575-7.0469-0.74219a0.032321 0.032321 0 0 0 -0.006 -0.002 0.032321 0.032321 0 0 0 -0.006 0.002 0.032321 0.032321 0 0 0 -0.01 0.004 0.032321 0.032321 0 0 0 -0.002 0 0.032321 0.032321 0 0 0 -0.008 0.008 0.032321 0.032321 0 0 0 -0.002 0.002 0.032321 0.032321 0 0 0 -0.002 0.006 0.032321 0.032321 0 0 0 -0.002 0.006 0.032321 0.032321 0 0 0 0 0.01 0.032321 0.032321 0 0 0 0 0.004l1.043 3.875a0.032321 0.032321 0 0 0 0.002 0.006 0.032321 0.032321 0 0 0 0.004 0.006 0.032321 0.032321 0 0 0 0.002 0.002 0.032321 0.032321 0 0 0 0.008 0.006 0.032321 0.032321 0 0 0 0.002 0.002 0.032321 0.032321 0 0 0 0.01 0.002 0.032321 0.032321 0 0 0 0.01 0c2.5159-0.39724 4.5166-0.5957 6.0039-0.5957h19.74c0.43465 0 0.76489-0.0842 0.98828-0.25586 0.2234-0.1716 0.33594-0.43137 0.33594-0.76953 0-0.27806-0.16712-0.61715-0.49219-1.0254-0.32506-0.40824-0.81027-0.88634-1.457-1.4336v0.002c-1.3416-1.1925-2.4093-2.0881-3.2051-2.6856-0.39789-0.29872-0.72763-0.52356-0.99023-0.67383-0.2626-0.15026-0.45662-0.22851-0.59375-0.22851zm-33.461 3.2754c-0.20226 0-0.3573 0.034-0.46484 0.10547-0.10754 0.0715-0.16406 0.18368-0.16406 0.32422 0 0.10658 0.0364 0.21288 0.10547 0.3164a0.032321 0.032321 0 0 0 0.004 0.006c2.5132 2.5133 4.2324 5.4202 5.1582 8.7266a0.032321 0.032321 0 0 0 0 0.002c0.28238 0.94682 0.64411 1.6593 1.0879 2.1367 0.44377 0.47739 0.97153 0.71875 1.5762 0.71875 0.93409 0 1.6413-0.29838 2.1113-0.89453 0.46998-0.59616 0.70312-1.4861 0.70312-2.666 0-1.5668-0.74978-3.0818-2.2441-4.543-1.7932-1.76-4.3668-3.1697-7.7148-4.2305a0.032321 0.032321 0 0 0 -0.006 0 0.032321 0.032321 0 0 0 -0.004 -0.002h-0.14844zm-33.1 8.9844a0.032321 0.032321 0 0 0 -0.002 0.002 0.032321 0.032321 0 0 0 -0.01 0.002 0.032321 0.032321 0 0 0 -0.006 0.002 0.032321 0.032321 0 0 0 -0.002 0.002 0.032321 0.032321 0 0 0 -0.008 0.008 0.032321 0.032321 0 0 0 -0.002 0.002 0.032321 0.032321 0 0 0 -0.002 0.006 0.032321 0.032321 0 0 0 0 0.002c-0.52602 2.3143-1.7906 5.522-3.793 9.6152-5.164 10.867-11.347 19.884-18.547 27.055-0.0761 0.0784-0.11523 0.1812-0.11523 0.29687 0 0.34917 0.0806 0.61526 0.24609 0.79492 0.16552 0.17966 0.41424 0.26954 0.73633 0.26954 0.0759 0 0.16413-0.0197 0.27148-0.0566a0.032321 0.032321 0 0 0 0.006 -0.004 0.032321 0.032321 0 0 0 0.004 -0.002c4.0607-2.8877 8.2417-6.7455 12.545-11.572l-0.10547 13.723c-0.10542 11.921-0.28139 21.881-0.52734 29.889a0.032321 0.032321 0 0 0 0 0.002c-0.0703 2.5726-0.10547 4.0024-0.10547 4.2949 0 0.92959 0.24503 1.6322 0.73633 2.1016 0.4913 0.46931 1.2258 0.70312 2.1973 0.70312 1.3396 0 2.3495-0.26944 3.0254-0.81055 0.67586-0.5411 1.0137-1.3541 1.0137-2.4297l-0.10546-32.664v-14.764c1.0626-0.46829 1.8625-0.91394 2.3984-1.3398 0.53946-0.42872 0.81641-0.83876 0.81641-1.2344 0-0.26296-0.11603-0.51311-0.33984-0.74609-0.22382-0.23299-0.55641-0.45142-0.99805-0.65625-0.87422-0.40546-2.1787-0.75837-3.9102-1.0644 3.4634-4.6212 6.5082-9.3149 9.1348-14.08 1.3979-0.10911 2.4491-0.30204 3.1543-0.58399 0.35419-0.1416 0.62244-0.30584 0.80274-0.49414 0.1803-0.18829 0.27344-0.4019 0.27344-0.63672 0-0.30341-0.18917-0.64427-0.55664-1.0254-0.36748-0.38112-0.91602-0.80421-1.6465-1.2715-1.4609-0.93455-3.6491-2.0434-6.5664-3.3301a0.032321 0.032321 0 0 0 -0.006 -0.002 0.032321 0.032321 0 0 0 -0.008 -0.002zm68.564 14.189c-0.14734 0-0.3445 0.0969-0.60547 0.28125-0.26097 0.18436-0.58489 0.45981-0.9707 0.82617-0.7695 0.73068-1.7882 1.824-3.0586 3.2812h-18.504c-2.6142 0-5.0456-0.24865-7.2949-0.74609a0.032321 0.032321 0 0 0 -0.01 0 0.032321 0.032321 0 0 0 -0.01 0.002 0.032321 0.032321 0 0 0 -0.006 0.002 0.032321 0.032321 0 0 0 -0.002 0.002 0.032321 0.032321 0 0 0 -0.006 0.004 0.032321 0.032321 0 0 0 -0.004 0.006 0.032321 0.032321 0 0 0 -0.002 0.006 0.032321 0.032321 0 0 0 -0.002 0.01 0.032321 0.032321 0 0 0 0.002 0.006 0.032321 0.032321 0 0 0 0 0.002l0.89453 3.5957a0.032321 0.032321 0 0 0 0.002 0.006 0.032321 0.032321 0 0 0 0.004 0.006 0.032321 0.032321 0 0 0 0.002 0.002 0.032321 0.032321 0 0 0 0.002 0.002 0.032321 0.032321 0 0 0 0.002 0.002 0.032321 0.032321 0 0 0 0.006 0.004 0.032321 0.032321 0 0 0 0.006 0.002 0.032321 0.032321 0 0 0 0.01 0.002 0.032321 0.032321 0 0 0 0.002 -0.002c2.2838-0.31108 4.419-0.46485 6.4043-0.46485h9.5801v45.58c0 0.5229-0.14902 0.9083-0.44726 1.166-0.29825 0.25772-0.74943 0.38867-1.3574 0.38867-2.1166 0-5.6414-0.24632-10.574-0.74414-0.17233-0.0324-0.31095 0.00076-0.40235 0.10352-0.0914 0.10275-0.13476 0.26627-0.13476 0.48828 0 0.3205 0.1445 0.53962 0.41992 0.63672a0.032321 0.032321 0 0 0 0.004 0c3.3767 0.80897 5.6276 1.558 6.7461 2.2383 1.0844 0.67946 1.7418 1.7882 1.9727 3.3379 0.0337 0.3641 0.16521 0.64102 0.39648 0.82617s0.55794 0.27734 0.97656 0.27734c2.4211 0 4.3326-0.54674 5.7305-1.6406l0.002-0.002c2.025-1.4048 3.043-3.1907 3.043-5.3477l-0.39648-20.684v-26.625h13.143c0.48334 0 0.84926-0.0717 1.0976-0.21679 0.2484-0.14514 0.37696-0.36882 0.37696-0.65821 0-0.29318-0.17575-0.64337-0.51758-1.0586-0.34163-0.41496-0.85192-0.89626-1.5312-1.4414h-0.002c-1.3742-1.1515-2.4758-2.0156-3.3047-2.5918-0.41458-0.28818-0.75979-0.50362-1.0391-0.64844-0.27927-0.14482-0.49083-0.2207-0.64257-0.2207zm-36.072 6.7832c-0.26784 0.0206-0.46877 0.0803-0.60156 0.1875-0.1328 0.1072-0.19429 0.26177-0.17969 0.45117 0.002 0.0335 0.008 0.0825 0.0137 0.14844a0.032321 0.032321 0 0 0 0.002 0.01 0.032321 0.032321 0 0 0 0 0.002c3.738 7.5799 6.2988 16.463 7.6816 26.65 0.37904 3.1938 0.81352 5.3861 1.3066 6.584 0.24795 0.61578 0.56231 1.0706 0.94726 1.3613 0.38496 0.29069 0.83907 0.41495 1.3574 0.375 1.1649-0.0898 2.0066-0.66316 2.5117-1.7148 0.50509-1.0517 0.67763-2.5774 0.52344-4.5781-0.30063-3.9008-1.4882-8.3119-3.5625-13.236-2.4505-5.9255-5.619-11.264-9.5078-16.016-0.1173-0.16523-0.28516-0.24057-0.49219-0.22461zm-21.879 1.5137a0.032321 0.032321 0 0 0 -0.002 0.002 0.032321 0.032321 0 0 0 -0.006 0 0.032321 0.032321 0 0 0 -0.006 0.004 0.032321 0.032321 0 0 0 -0.006 0.004 0.032321 0.032321 0 0 0 -0.002 0.002 0.032321 0.032321 0 0 0 -0.002 0.002 0.032321 0.032321 0 0 0 -0.004 0.006 0.032321 0.032321 0 0 0 -0.002 0.006 0.032321 0.032321 0 0 0 -0.002 0.006 0.032321 0.032321 0 0 0 0 0.004c0.0203 0.59863 0.0167 1.0958-0.0137 1.4902-0.0278 0.36131-0.092 0.76862-0.19336 1.2246a0.032321 0.032321 0 0 0 0 0.004c-1.8641 13.87-5.5296 26.537-10.994 38.004a0.032321 0.032321 0 0 0 -0.002 0.002 0.032321 0.032321 0 0 0 -0.002 0.01c-0.005 0.0658-0.007 0.11523-0.01 0.14844-0.0184 0.23882 0.0547 0.43174 0.21875 0.56641 0.1641 0.13467 0.41411 0.21259 0.74805 0.23828 0.23587 0.0181 0.40379-0.0396 0.48828-0.17774l0.002-0.002c3.2902-4.3321 6.0636-9.0846 8.3223-14.26 2.3058-5.3682 4.6005-12.53 6.8828-21.48 0.99201-0.2705 1.7461-0.55439 2.2598-0.85547 0.51724-0.30318 0.79564-0.62663 0.82226-0.97266 0.0235-0.30583-0.0782-0.59632-0.30273-0.86719-0.22427-0.27056-0.56989-0.52376-1.0352-0.75976h-0.002c-1.1243-0.58737-3.5044-1.368-7.1484-2.3457a0.032321 0.032321 0 0 0 -0.002 0 0.032321 0.032321 0 0 0 -0.008 -0.002z"/>
<path d="m716.61-277.76v-7.9119h-46.148v7.9119h46.148zm0 10.966v-8.6059h-46.148v8.6059h46.148zm0 2.1746h-46.148v2.2672q0 2.6373-3.676 2.6373-2.8811 0-2.8811-2.1746l0.44707-15.407q0-8.6059-0.64577-14.251 4.6198 1.8045 7.6499 3.5164h44.459q3.0302-3.2388 3.7753-3.2388 0.84448 0 4.2224 2.6373 1.6393 1.3418 1.6393 2.2209 0 1.0642-2.6328 2.5448v6.0149l0.3974 15.592q0 2.5448-3.974 2.5448-2.6328 0-2.6328-1.9895v-2.9149zm-1.2933-66.869v-9.0076h-22.27v9.0076zm0 11.699v-9.0593h-22.27v9.0593zm0 2.6401h-22.27v8.2828h27.983c2.4472-3.0025 3.9156-4.5038 4.405-4.5038 0.68523 0 2.382 1.1734 5.0902 3.5202 1.2726 1.0354 1.9088 1.9327 1.9088 2.6919 0 0.62121-0.42419 0.93182-1.2726 0.93182h-38.114v8.3863h34.786c2.8388-3.3131 4.5518-4.9697 5.1392-4.9697 0.45682 0 2.2188 1.2769 5.286 3.8308 1.4031 1.1734 2.1046 2.1225 2.1046 2.8472 0 0.62121-0.42419 0.93182-1.2726 0.93182h-85.199c-2.2514 0-4.454 0.20707-6.6075 0.62121l-1.0278-3.9861c2.3494 0.48316 4.8618 0.72474 7.5375 0.72474h33.282v-8.3863h-26.185c-2.0557 0-4.1277 0.20707-6.216 0.62121l-0.97889-4.0379c2.2514 0.51768 4.6497 0.77652 7.1948 0.77652h26.185v-8.2828h-20.948c-2.2514 0-4.7313 0.20707-7.4396 0.62121l-0.97889-3.9861c3.0672 0.48317 5.8734 0.72475 8.4185 0.72475h20.948v-9.0593h-32.793c-1.9578 0-4.3398 0.20707-7.1459 0.6212l-0.97889-3.9861c2.904 0.48316 5.5471 0.72474 7.929 0.72474h32.989v-9.0076h-19.088c-2.4472 0-4.976 0.24158-7.5864 0.72475l-1.0278-4.0896c3.1977 0.48317 6.0365 0.72475 8.5164 0.72475h19.186c-0.13052-4.314-0.30998-7.4545-0.53839-9.4217 4.3724 0.51767 7.2438 1.0181 8.6142 1.5013 0.94626 0.34511 1.4194 0.79376 1.4194 1.346 0 0.82829-1.1747 1.7428-3.524 2.7437v3.8308h21.585c1.9578-2.3468 3.1814-3.5202 3.6708-3.5202 0.48944 0 1.8599 0.94907 4.1113 2.8472 1.0768 1.0008 1.6152 1.8291 1.6152 2.4848 0 0.62121-0.89732 1.5703-2.692 2.8472v6.9886h8.6987c2.7083-3.2441 4.2908-4.8662 4.7476-4.8662 0.48945 0 2.1862 1.2769 5.0902 3.8308 1.2726 1.1389 1.9088 2.0534 1.9088 2.7437 0 0.62121-0.47313 0.93182-1.4194 0.93182h-19.026c0.0327 3.0715 0.11424 5.8325 0.24472 8.2828 0.0979 1.8291 0.14683 2.7609 0.14683 2.7954 0 1.9672-1.3052 2.9508-3.9156 2.9508-1.6641 0-2.4962-0.77651-2.4962-2.3295z"/>
</g>
<path d="m550.8-224.54c0.31706 2.5895 0.47461 8.2393 0.47461 17.355a0.32288 0.32288 0 0 1 -0.32227 0.32226h-13.594a0.32288 0.32288 0 0 1 -0.16797 -0.0469c-2.2027-1.3478-4.614-2.5958-7.1992-3.7598 0.3756 5.0093 0.57032 11.808 0.57032 20.578v31.869a0.32288 0.32288 0 0 1 -0.32227 0.32226h-4.6816c-2.182 0-4.678-0.23947-7.4414-0.67968l0.81446 3.3203c2.0634-0.38852 4.2655-0.59571 6.627-0.59571h87.547c0.44597 0 0.74776-0.0815 0.90624-0.18554 0.15849-0.10401 0.2168-0.20689 0.2168-0.44141 0-0.18222-0.12471-0.53589-0.43164-0.99414-0.30616-0.4571-0.78143-1.0221-1.418-1.6797l-0.004-0.002c-1.472-1.472-2.6402-2.5772-3.498-3.3047-0.42932-0.36406-0.78206-0.63453-1.0469-0.80664-0.26481-0.17211-0.46607-0.22461-0.44921-0.22461 0.0562 0-0.13569 0.0525-0.37696 0.26758-0.24126 0.21507-0.56091 0.55635-0.94531 1.0156-0.76881 0.91854-1.8021 2.3119-3.0938 4.1719a0.32288 0.32288 0 0 1 -0.26563 0.13867h-4.4434a0.32288 0.32288 0 0 1 -0.32227 -0.32226v-44.109a0.32288 0.32288 0 0 1 0.13672 -0.26367c0.86662-0.60643 1.5093-1.1546 1.9219-1.625 0.41259-0.47037 0.58008-0.85451 0.58008-1.1191 0-0.57866-0.46887-1.3644-1.5332-2.2871a0.32288 0.32288 0 0 1 -0.002 -0.002c-1.09-0.9625-1.981-1.6828-2.6602-2.1543-0.67914-0.47145-1.1842-0.66797-1.3086-0.66797 0.0223 0-0.12431 0.0353-0.32227 0.16992-0.19796 0.13463-0.46088 0.35012-0.77734 0.64258-0.63293 0.58493-1.4827 1.4764-2.541 2.668a0.32288 0.32288 0 0 1 -0.24219 0.10742h-14.143a0.32288 0.32288 0 0 1 -0.32227 -0.32226v-11.977a0.32288 0.32288 0 0 1 0.19727 -0.29687c1.1109-0.46739 1.933-0.93414 2.457-1.375 0.52397-0.44086 0.73242-0.83087 0.73242-1.1777 0-0.21844-0.0705-0.3955-0.24805-0.58398-0.17723-0.18818-0.47071-0.37675-0.88867-0.54102h-0.002c-1.2105-0.44789-3.9558-0.93022-8.002-1.4043 0.31707 2.5895 0.47461 8.2393 0.47461 17.355a0.32288 0.32288 0 0 1 -0.32226 0.32226h-14.24a0.32288 0.32288 0 0 1 -0.32226 -0.32226v-11.977a0.32288 0.32288 0 0 1 0.19531 -0.29687c1.0941-0.46722 1.9044-0.93259 2.4199-1.373 0.51557-0.44045 0.7207-0.83083 0.7207-1.1797 0-0.21809-0.072-0.39537-0.25-0.58398-0.17774-0.18831-0.47063-0.37672-0.88867-0.54102h-0.002c-1.211-0.44808-3.9377-0.93037-7.9512-1.4043zm-14.561 19.723a0.32288 0.32288 0 0 1 0.0234 0h14.689a0.32288 0.32288 0 0 1 0.32227 0.32227v20.895a0.32288 0.32288 0 0 1 -0.32227 0.32227h-14.689a0.32288 0.32288 0 0 1 -0.32227 -0.32227v-20.895a0.32288 0.32288 0 0 1 0.29883 -0.32227zm20.615 0a0.32288 0.32288 0 0 1 0.0234 0h14.24a0.32288 0.32288 0 0 1 0.32226 0.32227v20.895a0.32288 0.32288 0 0 1 -0.32226 0.32227h-14.24a0.32288 0.32288 0 0 1 -0.32226 -0.32227v-20.895a0.32288 0.32288 0 0 1 0.29883 -0.32227zm20.164 0a0.32288 0.32288 0 0 1 0.0234 0h15.088a0.32288 0.32288 0 0 1 0.32226 0.32227v20.895a0.32288 0.32288 0 0 1 -0.32226 0.32227h-15.088a0.32288 0.32288 0 0 1 -0.32227 -0.32227v-20.895a0.32288 0.32288 0 0 1 0.29883 -0.32227zm-40.779 23.586a0.32288 0.32288 0 0 1 0.0234 0h14.689a0.32288 0.32288 0 0 1 0.32227 0.32227v22.688a0.32288 0.32288 0 0 1 -0.32227 0.32226h-14.689a0.32288 0.32288 0 0 1 -0.32227 -0.32226v-22.688a0.32288 0.32288 0 0 1 0.29883 -0.32227zm20.615 0a0.32288 0.32288 0 0 1 0.0234 0h14.24a0.32288 0.32288 0 0 1 0.32226 0.32227v22.688a0.32288 0.32288 0 0 1 -0.32226 0.32226h-14.24a0.32288 0.32288 0 0 1 -0.32226 -0.32226v-22.688a0.32288 0.32288 0 0 1 0.29883 -0.32227zm20.164 0a0.32288 0.32288 0 0 1 0.0234 0h15.088a0.32288 0.32288 0 0 1 0.32226 0.32227v22.688a0.32288 0.32288 0 0 1 -0.32226 0.32226h-15.088a0.32288 0.32288 0 0 1 -0.32227 -0.32226v-22.688a0.32288 0.32288 0 0 1 0.29883 -0.32227zm-29.682 28.145c-0.98674 1.5796-2.7778 3.5413-5.4375 5.957-6.2144 5.8461-13.834 10.782-22.852 14.807a0.32288 0.32288 0 0 1 -0.0371 0.0137c-0.0431 0.0132-0.0462 0.0203-0.0605 0.043s-0.0363 0.0749-0.0391 0.17578a0.32288 0.32288 0 0 1 0 0.002c-0.0106 0.38732 0.0593 0.62825 0.125 0.7207 0.0648 0.0912 0.10769 0.11261 0.30273 0.082 11.236-2.6704 21.741-7.7423 31.521-15.229a0.32288 0.32288 0 0 1 0.20508 -0.0664c0.34817 0.01 0.83641 0.0234 1.4629 0.041 1.2502 0.0351 2.1793-0.0626 2.7539-0.25977 0.28733-0.0986 0.48094-0.2198 0.5957-0.34179 0.11477-0.122 0.16343-0.24029 0.16797-0.40626 0.002-0.0626-0.10714-0.32345-0.45898-0.66601-0.35185-0.34256-0.9088-0.76911-1.6602-1.2598-1.4561-0.95086-3.6783-2.1653-6.5898-3.6133zm27.869 0.9375c-0.23526-0.0194-0.30652 0.0231-0.36133 0.0957-0.0548 0.0726-0.11053 0.26017-0.0762 0.58984 0.0142 0.13657 0.021 0.1202 0.0566 0.13281 0.00044 0.00016-0.00046 0.002 0 0.002 10.644 3.5712 19.174 8.5389 25.572 14.91a0.32288 0.32288 0 0 1 0.004 0.004c1.8441 1.8969 3.4549 2.7114 4.8184 2.5801 0.84775-0.0816 1.4938-0.42295 2.0039-1.0586a0.32288 0.32288 0 0 1 0 -0.002c0.57201-0.70845 0.80468-1.5609 0.69336-2.6289-0.34228-3.2833-3.0417-6.2447-8.2598-8.8633-6.0335-3.0015-14.185-4.9294-24.449-5.7617a0.32288 0.32288 0 0 1 -0.002 0z" fill="#fff"/>
</g>
<g fill="#312951">
<path d="m-528.2 472.19q-8.4917-0.47176-13.799-0.47176-8.02 0-15.096 0.47176l-4.9535 13.504q-2.7716 7.3713-2.7716 11.145 0 3.0664 2.1229 4.2458 2.1229 1.1204 8.0199 1.5332 1.0615 0.11795 1.0615 1.5332 0 1.5922-1.0615 1.5922-13.15-0.35382-14.507-0.35382-6.5457 0-12.207 0.35382-1.0615 0-1.0615-1.5922 0-1.4153 1.0615-1.5332 4.8356-0.64867 6.8995-2.8895 2.7126-2.9485 7.1354-14.507l14.271-37.8q7.1354-19.106 9.1404-25.711l6.8995-3.4203q0.82558 0 1.0615 1.0025 3.7151 12.443 9.4352 28.718l13.563 38.154q3.7741 10.615 5.897 13.563 1.6512 2.4178 8.6686 2.8895 1.3563 0.11795 1.3563 1.5332 0 1.5922-1.2974 1.5922-13.504-0.35382-15.745-0.35382-1.946 0-15.45 0.35382-1.0615 0-1.0615-1.5922 0-1.4153 1.0615-1.5332 6.2508-0.47176 8.0199-1.7101 1.2973-0.94352 1.2973-3.3613 0-2.2409-2.7716-10.261l-5.1894-15.096zm-45.879 30.429zm6.1329 0zm25.593-71.413q-0.88455 2.6537-2.8895 7.961-2.1819 5.897-3.3023 8.9635l-6.8405 19.224q4.3048 0.23588 13.386 0.23588 8.3148 0 12.207-0.23588l-6.8995-19.224q-2.6537-7.843-5.6611-16.924z"/>
<path d="m-461.62 468.36v8.1968h-28.129v-8.1968h28.129z"/>
<path d="m-414.27 419.41q1.946 0 1.946 1.5332-0.5897 15.863-0.5897 25.888v36.679q0 9.0814 0.29485 11.853 0.29485 2.3588 1.1794 3.8331 1.2974 2.3588 10.968 3.0664 1.0615 0.11794 1.0615 1.7691 0 1.7101-0.82558 1.7101-10.733-0.47176-17.042-0.47176-5.4842 0-17.396 0.47176-0.82558 0-0.82558-1.7101 0-1.6512 1.1794-1.7691 5.7791-0.41279 8.0199-1.1794 1.7101-0.5897 2.4768-1.887 1.4742-2.2998 1.4742-15.686v-42.4q0-7.0174-1.2973-8.7866-1.1794-1.5922-3.4203-1.5922-1.5922 0-4.3638 0.88455l-5.3073 1.6512q-1.5332 0-1.5332-2.4178 0-0.70764 1.3563-1.1794 11.794-4.2459 22.645-10.261z"/>
<path d="m-349.58 460.45q10.497 1.8281 16.04 8.1968 4.8356 5.6022 4.8356 13.681 0 12.443-8.1968 19.46-7.1354 6.015-18.34 6.015-9.6121 0-17.16-4.7176-7.6072-4.6586-7.6072-9.6711 0-2.2409 2.2998-3.7741 2.064-1.2973 4.9535-1.2973 2.7716 0 5.5432 6.8995l0.5897 1.4153q3.1254 7.2533 11.381 7.2533 7.902 0 12.207-6.3098 3.8331-5.7201 3.8331-15.686 0-9.2583-5.1894-14.566-4.5407-4.5997-11.617-4.5997l-6.3688 0.35382q-1.4743 0-1.4743-1.3563 0-3.5972 2.5357-3.5972l4.1279 0.35382q7.3713 0 11.735-5.6611 3.8331-5.0714 3.8331-12.797 0-8.3738-3.8331-12.679-3.3613-3.6562-8.9635-3.6562-7.7841 0-10.615 5.3073-1.2384 2.4178-1.2384 6.0739 0 2.5947-2.5947 4.2458-2.2998 1.4153-5.3663 1.4153-3.7151 0-3.7151-3.4792 0-6.7816 7.843-12.325 7.0174-4.9535 15.686-4.9535 10.792 0 17.16 6.0739 5.6611 5.4252 5.6611 13.976 0 15.391-17.986 19.932v0.47176z"/>
</g>
</g>
</g>
</svg>
